<svg width="20" height="20" viewBox="0 0 20 20" fill="none" xmlns="http://www.w3.org/2000/svg">
<g clip-path="url(#clip0_3483_8539)">
<rect width="20" height="20" rx="2" fill="white"/>
<path d="M9.99975 1.14551C5.41934 1.14551 1.70605 4.86729 1.70605 9.45821C1.70605 13.7572 4.96201 17.294 9.13717 17.7264V5.9634L5.47079 4.53214H9.13705L9.99967 4.03289L10.8623 4.53214H14.5285L10.8623 5.9634V17.7265C15.0374 17.2938 18.2934 13.7572 18.2934 9.45821C18.2935 4.86729 14.5803 1.14551 9.99975 1.14551ZM7.61047 6.88663V15.3277L5.88519 13.2146V7.94676L4.59525 7.4378L4.22823 8.13105L3.6301 5.31362L7.61047 6.88663ZM15.7713 8.13105L15.4043 7.4378L14.1144 7.94676V13.2146L12.3892 15.3277V6.88663L16.3693 5.31362L15.7713 8.13105Z" fill="#FF671F"/>
<path fill-rule="evenodd" clip-rule="evenodd" d="M21.0533 -1.49512H16.8563V-0.921498H2.87734V-0.921506H-1.05371V-0.921498V3.23164V17.7268V18.4189V21.1847H21.0537V17.7268H21.0533V3.23164H21.0537V-0.921498H21.0533V-1.49512ZM14.5427 3.23164H5.74504V4.69593H4.08312L2.87734 5.92987V13.6775L9.08647 16.7782V17.7268H10.9684V16.0186L16.8563 13.7478V5.467H14.5427V3.23164Z" fill="#FF671F"/>
</g>
<defs>
<clipPath id="clip0_3483_8539">
<rect width="20" height="20" rx="2" fill="white"/>
</clipPath>
</defs>
</svg>
